<svg width="900" height="160" viewBox="0 0 900 160" xmlns="http://www.w3.org/2000/svg">

  <!-- Arrows style -->
  <defs>
    <marker id="arrow" markerWidth="10" markerHeight="10" refX="9" refY="3" orient="auto" markerUnits="strokeWidth">
      <path d="M0,0 L0,6 L9,3 z" fill="#e5e7eb" />
    </marker>
  </defs>

  <!-- Input box -->
  <rect x="35" y="50" rx="10" ry="10" width="150" height="60" fill="#374151"/>
  <text x="110" y="80" text-anchor="middle" fill="#e5e7eb" font-size="14" font-family="system-ui">
    Input
  </text>
  <text x="110" y="97" text-anchor="middle" fill="#e5e7eb" font-size="14" font-family="system-ui">
    Conversations
  </text>

  <!-- CMN box -->
  <rect x="235" y="50" rx="10" ry="10" width="170" height="60" fill="#6b21a8"/>
  <text x="320" y="73" text-anchor="middle" fill="#f9fafb" font-size="14" font-family="system-ui">
    CMN (2018)
  </text>
  <text x="320" y="92" text-anchor="middle" fill="#e5e7eb" font-size="12" font-family="system-ui">
    Speaker-specific memory
  </text>

  <!-- Limitation text under CMN -->
  <text x="320" y="122" text-anchor="middle" fill="#9ca3af" font-size="11" font-family="system-ui">
    Limit: short context, no long-range memory
  </text>

  <!-- Transformer-XL box -->
  <rect x="475" y="25" rx="10" ry="10" width="190" height="55" fill="#1d4ed8"/>
  <text x="570" y="48" text-anchor="middle" fill="#f9fafb" font-size="14" font-family="system-ui">
    Transformer-XL (2019)
  </text>
  <text x="570" y="66" text-anchor="middle" fill="#e5e7eb" font-size="12" font-family="system-ui">
    Long-context recurrence
  </text>

  <!-- EACL box -->
  <rect x="475" y="90" rx="10" ry="10" width="190" height="55" fill="#0f766e"/>
  <text x="570" y="113" text-anchor="middle" fill="#f9fafb" font-size="14" font-family="system-ui">
    EACL (2024)
  </text>
  <text x="570" y="130" text-anchor="middle" fill="#e5e7eb" font-size="11" font-family="system-ui">
    Emotion anchors + contrastive loss
  </text>

  <!-- Hybrid box -->
  <rect x="735" y="50" rx="10" ry="10" width="150" height="60" fill="#4b5563"/>
  <text x="810" y="73" text-anchor="middle" fill="#f9fafb" font-size="14" font-family="system-ui">
    Hybrid Model
  </text>
  <text x="810" y="92" text-anchor="middle" fill="#e5e7eb" font-size="12" font-family="system-ui">
    Long context + anchors
  </text>

  <!-- Arrows -->
  <line x1="185" y1="80" x2="235" y2="80" stroke="#e5e7eb" stroke-width="2" marker-end="url(#arrow)" />
  <line x1="405" y1="80" x2="475" y2="52" stroke="#e5e7eb" stroke-width="2" marker-end="url(#arrow)" />
  <line x1="405" y1="80" x2="475" y2="118" stroke="#e5e7eb" stroke-width="2" marker-end="url(#arrow)" />
  <line x1="665" y1="52" x2="735" y2="80" stroke="#e5e7eb" stroke-width="2" marker-end="url(#arrow)" />
  <line x1="665" y1="118" x2="735" y2="80" stroke="#e5e7eb" stroke-width="2" marker-end="url(#arrow)" />

</svg>
